<svg width="236" height="76" viewBox="0 0 236 76" fill="none" xmlns="http://www.w3.org/2000/svg">
<g clip-path="url(#clip0)">
<path d="M87.6259 4.03671C87.6259 2.32409 86.7333 1.07232 85.3236 1.07232C85.1264 1.07232 84.7973 1.08163 84.6093 1.09094V6.25777C84.6376 6.70011 84.901 6.93518 85.5116 6.93518C86.987 6.93518 87.6259 5.73072 87.6259 4.03671ZM82.3821 7.0107C82.5701 7.00139 82.946 6.95408 83.0683 6.90726C83.2937 6.82244 83.3594 6.65319 83.3594 6.44603V1.63699C83.3594 1.42983 83.2937 1.25089 83.0683 1.15676C82.852 1.05342 82.589 1.01581 82.4197 0.996809V0.790039H85.5209C86.8366 0.790039 89.0545 1.46735 89.0545 4.04641C89.0545 6.23877 87.1846 7.21785 85.3329 7.21785H82.3821V7.0107Z" fill="white"/>
<path d="M94.1774 3.83915C95.0042 3.83915 95.7089 3.50995 95.7089 2.42753C95.7089 1.40153 95.1357 1.06263 94.3839 1.06263H93.7922V3.83915H94.1774ZM95.6056 5.74972C95.5024 4.87436 95.3144 4.12153 94.3371 4.12153H93.7922V6.41772C93.7922 6.62498 93.8579 6.79414 94.0737 6.87905C94.196 6.92626 94.5815 6.99208 94.7505 7.0107V7.21785H91.5552V7.0107C91.7246 7.00139 92.1284 6.94488 92.2506 6.89796C92.4761 6.81314 92.5418 6.64349 92.5418 6.42742V1.61809C92.5418 1.41122 92.4858 1.23227 92.2506 1.14755C92.0816 1.08163 91.7246 1.01581 91.5552 0.996809V0.790039H94.9103C96.0944 0.790039 97.1092 1.22258 97.1092 2.24858C97.1092 3.27448 96.1413 3.70751 95.3801 3.91428V3.98979C95.8407 4.04641 96.5829 4.28148 96.7709 4.96849C96.912 5.48634 96.9592 5.89105 97.0717 6.3426C97.1657 6.70931 97.3634 6.78493 97.5231 6.78493C97.7578 6.78493 97.9647 6.51185 97.9647 5.92857V5.73072H98.2277L98.2184 5.93788C98.2087 6.76631 97.8707 7.32129 96.931 7.32129C96.1413 7.32129 95.7467 6.86936 95.6056 5.74972Z" fill="white"/>
<path d="M100.344 7.0107C100.513 6.99208 100.945 6.94488 101.076 6.88826C101.302 6.80344 101.368 6.64349 101.368 6.42742V1.63699C101.368 1.42983 101.312 1.26989 101.076 1.17576C100.898 1.10063 100.513 1.01581 100.344 0.996809V0.790039H105.681V2.35192H105.428C105.315 1.92868 104.817 1.16645 104.375 1.10063C104.149 1.07232 103.896 1.06263 103.604 1.06263H102.618V3.74502H103.323C103.839 3.74502 104.009 3.58507 104.13 3.46274C104.291 3.30279 104.422 2.83225 104.45 2.58748H104.704V5.23187H104.45C104.422 4.94949 104.262 4.45113 104.13 4.30969C103.999 4.16836 103.82 4.02741 103.323 4.02741H102.618V6.10713C102.618 6.84144 102.777 6.93518 103.679 6.93518C104.272 6.93518 104.91 6.94488 105.136 6.71901C105.465 6.38951 105.832 5.63659 105.944 5.33569H106.179L106.057 7.21785H100.344V7.0107Z" fill="white"/>
<path d="M113.453 1.38263C113.453 1.11924 113.059 1.03481 112.551 0.99681V0.790039H115.211V0.99681C114.994 1.01581 114.731 1.07232 114.562 1.14755C114.196 1.29819 113.961 1.56148 113.754 1.81555C113.237 2.44653 112.72 3.12384 112.297 3.64169C112.767 4.30048 113.829 5.87205 114.083 6.20126C114.28 6.45534 114.459 6.70931 114.778 6.87905C114.91 6.95408 115.239 6.99208 115.464 7.0107V7.21786H111.781V7.0107C112.335 6.97308 112.758 6.88826 112.758 6.63428C112.758 6.38951 112.147 5.49564 111.433 4.48864C111.029 4.98749 109.939 6.3426 109.939 6.63428C109.939 6.89796 110.333 6.98239 110.841 7.02V7.22716H108.181V7.02C108.397 7.00139 108.651 6.94488 108.829 6.86936C109.196 6.71901 109.431 6.45534 109.638 6.20126C110.221 5.50485 110.784 4.74272 111.235 4.20636C110.634 3.3403 110.004 2.42753 109.581 1.80625C109.365 1.49566 109.224 1.29819 108.886 1.13824C108.735 1.07232 108.435 1.01581 108.209 0.99681V0.790039H111.884V0.99681C111.329 1.03481 110.916 1.11924 110.916 1.37332C110.916 1.71212 111.696 2.78494 112.1 3.35C112.579 2.76633 113.453 1.63699 113.453 1.38263Z" fill="white"/>
<path d="M117.524 7.0107C117.693 6.99208 118.126 6.94488 118.257 6.88826C118.482 6.80344 118.548 6.64349 118.548 6.42742V1.63699C118.548 1.42983 118.492 1.26989 118.257 1.17576C118.078 1.10063 117.693 1.01581 117.524 0.996809V0.790039H122.862V2.35192H122.608C122.495 1.92868 121.997 1.16645 121.555 1.10063C121.33 1.07232 121.076 1.06263 120.785 1.06263H119.798V3.74502H120.503C121.02 3.74502 121.189 3.58507 121.311 3.46274C121.471 3.30279 121.603 2.83225 121.631 2.58748H121.884V5.23187H121.631C121.603 4.94949 121.443 4.45113 121.311 4.30969C121.18 4.16836 121.001 4.02741 120.503 4.02741H119.798V6.10713C119.798 6.84144 119.958 6.93518 120.86 6.93518C121.452 6.93518 122.091 6.94488 122.317 6.71901C122.646 6.38951 123.012 5.63659 123.125 5.33569H123.36L123.238 7.21785H117.524V7.0107Z" fill="white"/>
<path d="M125.72 7.0107C125.889 6.99208 126.293 6.94488 126.415 6.89796C126.641 6.80344 126.707 6.63428 126.707 6.42742V1.6463C126.707 1.43953 126.65 1.27919 126.415 1.17576C126.246 1.10063 125.889 1.01581 125.72 0.996809V0.790039H128.925V0.996809C128.755 1.01581 128.417 1.07232 128.248 1.12894C128.013 1.20406 127.957 1.39232 127.957 1.59948V6.10713C127.957 6.87905 128.088 6.94488 129.018 6.94488C129.526 6.94488 130.108 6.91657 130.306 6.70931C130.588 6.41772 131.02 5.6838 131.152 5.29769H131.377L131.246 7.21785H125.72V7.0107Z" fill="white"/>
<path d="M138.361 5.31669V1.6274C138.361 1.42053 138.286 1.26989 138.069 1.15676C137.9 1.07232 137.562 1.01581 137.421 0.996809V0.790039H140.579V0.996809C140.41 1.01581 140.071 1.06263 139.911 1.11924C139.676 1.19476 139.62 1.37332 139.62 1.58048V5.21326C139.62 6.17295 139.968 6.93518 141.227 6.93518C142.496 6.93518 142.966 6.06952 142.966 5.18505V2.55917C142.966 1.82525 142.853 1.43953 142.646 1.28889C142.449 1.14755 141.923 1.01581 141.725 0.996809V0.790039H144.497V0.996809C144.338 1.01581 143.849 1.09094 143.633 1.23227C143.398 1.39232 143.332 1.82525 143.332 2.50266V5.23187C143.332 6.75662 142.045 7.3685 140.935 7.3685C139.244 7.3685 138.361 6.47433 138.361 5.31669Z" fill="white"/>
<path d="M148.023 2.09794V5.42013C148.023 6.14465 148.135 6.54016 148.342 6.70931C148.502 6.84144 149.094 6.99208 149.263 7.0107V7.21785H146.491V7.0107C146.65 6.99208 147.195 6.86936 147.355 6.75662C147.571 6.59667 147.656 6.19195 147.656 5.46733V2.17345C147.656 1.89107 147.562 1.60878 147.365 1.42983C147.149 1.24158 146.716 1.05342 146.415 1.0065V0.790039H148.53L152.204 5.46733V2.56848C152.204 1.87207 152.092 1.43953 151.885 1.28889C151.716 1.16645 151.152 1.01581 150.964 0.996809V0.790039H153.727V0.996809C153.567 1.01581 153.051 1.10994 152.862 1.24158C152.637 1.40153 152.561 1.85317 152.561 2.51235V7.26477H152.083L148.023 2.09794Z" fill="white"/>
<path d="M155.897 7.0107C156.067 7.00139 156.452 6.95408 156.574 6.90726C156.801 6.82244 156.866 6.66249 156.866 6.45534V1.6274C156.866 1.42053 156.801 1.26989 156.574 1.17576C156.406 1.10994 156.077 1.01581 155.897 0.996809V0.790039H159.084V0.996809C158.915 1.01581 158.567 1.07232 158.398 1.12894C158.172 1.20406 158.116 1.37332 158.116 1.58048V6.40842C158.116 6.61528 158.191 6.76631 158.398 6.86005C158.511 6.90726 158.915 6.99208 159.084 7.0107V7.21785H155.897V7.0107Z" fill="white"/>
<path d="M162.092 1.69322C162.007 1.45814 161.914 1.31671 161.679 1.17576C161.51 1.08163 161.265 1.0065 161.058 0.996809V0.790039H164.226V0.996809C163.708 1.05342 163.332 1.15676 163.332 1.3454C163.332 1.41122 163.351 1.50535 163.38 1.58048C163.483 1.89107 164.291 4.20636 164.865 5.79654C165.288 4.79885 165.879 3.3403 166.058 2.86976C166.312 2.21097 166.5 1.78735 166.5 1.47704C166.5 1.19476 165.889 1.03481 165.428 1.0065V0.790039H167.966V1.0065C167.787 1.01581 167.524 1.09094 167.355 1.18506C167.091 1.35471 166.97 1.61809 166.828 1.92868C166.537 2.60648 165.156 5.94718 164.592 7.29298H164.094C163.436 5.44833 162.327 2.34271 162.092 1.69322Z" fill="white"/>
<path d="M169.817 7.0107C169.987 6.99208 170.419 6.94488 170.551 6.88826C170.776 6.80344 170.842 6.64349 170.842 6.42742V1.63699C170.842 1.42983 170.786 1.26989 170.551 1.17576C170.372 1.10063 169.987 1.01581 169.817 0.996809V0.790039H175.156V2.35192H174.902C174.789 1.92868 174.291 1.16645 173.849 1.10063C173.624 1.07232 173.37 1.06263 173.079 1.06263H172.092V3.74502H172.797C173.314 3.74502 173.483 3.58507 173.605 3.46274C173.765 3.30279 173.897 2.83225 173.925 2.58748H174.179V5.23187H173.925C173.897 4.94949 173.737 4.45113 173.605 4.30969C173.474 4.16836 173.295 4.02741 172.797 4.02741H172.092V6.10713C172.092 6.84144 172.252 6.93518 173.154 6.93518C173.746 6.93518 174.385 6.94488 174.611 6.71901C174.939 6.38951 175.306 5.63659 175.419 5.33569H175.654L175.532 7.21785H169.817V7.0107Z" fill="white"/>
<path d="M180.607 3.83915C181.434 3.83915 182.139 3.50995 182.139 2.42753C182.139 1.40153 181.566 1.06263 180.813 1.06263H180.222V3.83915H180.607ZM182.035 5.74972C181.932 4.87436 181.745 4.12153 180.767 4.12153H180.222V6.41772C180.222 6.62498 180.287 6.79414 180.504 6.87905C180.626 6.92626 181.011 6.99208 181.18 7.0107V7.21785H177.985V7.0107C178.154 7.00139 178.558 6.94488 178.68 6.89796C178.906 6.81314 178.972 6.64349 178.972 6.42742V1.61809C178.972 1.41122 178.916 1.23227 178.68 1.14755C178.511 1.08163 178.154 1.01581 177.985 0.996809V0.790039H181.34C182.524 0.790039 183.539 1.22258 183.539 2.24858C183.539 3.27448 182.571 3.70751 181.81 3.91428V3.98979C182.271 4.04641 183.013 4.28148 183.201 4.96849C183.342 5.48634 183.389 5.89105 183.501 6.3426C183.595 6.70931 183.793 6.78493 183.952 6.78493C184.187 6.78493 184.395 6.51185 184.395 5.92857V5.73072H184.657L184.648 5.93788C184.638 6.76631 184.3 7.32129 183.36 7.32129C182.571 7.32129 182.176 6.86936 182.035 5.74972Z" fill="white"/>
<path d="M187.544 6.86934L187.233 7.30227H186.914L186.857 5.02498H187.084C187.45 5.98477 188.127 7.04819 189.217 7.04819C189.997 7.04819 190.401 6.55904 190.401 5.88134C190.401 5.31667 190.062 4.93095 189.433 4.69549C188.963 4.51693 188.577 4.3848 188.155 4.20634C187.393 3.87674 187.027 3.28377 187.027 2.46502C187.027 1.45812 187.826 0.648682 189.047 0.648682C189.63 0.648682 190.203 0.87484 190.533 1.10061L190.814 0.695891H191.143L191.181 2.87944H190.965C190.542 1.70289 189.987 0.949967 189.01 0.949967C188.54 0.949967 188.051 1.29817 188.051 1.94766C188.051 2.51233 188.361 2.84153 188.963 3.11451C189.404 3.31208 189.846 3.44372 190.213 3.60367C190.983 3.94256 191.482 4.36628 191.482 5.36349C191.482 6.51183 190.552 7.34958 189.226 7.34958C188.361 7.34958 187.854 7.0765 187.544 6.86934Z" fill="white"/>
<path d="M194.01 7.0107C194.179 7.00139 194.564 6.95408 194.686 6.90726C194.912 6.82244 194.978 6.66249 194.978 6.45534V1.6274C194.978 1.42053 194.912 1.26989 194.686 1.17576C194.517 1.10994 194.188 1.01581 194.01 0.996809V0.790039H197.196V0.996809C197.027 1.01581 196.679 1.07232 196.51 1.12894C196.284 1.20406 196.228 1.37332 196.228 1.58048V6.40842C196.228 6.61528 196.303 6.76631 196.51 6.86005C196.623 6.90726 197.027 6.99208 197.196 7.0107V7.21785H194.01V7.0107Z" fill="white"/>
<path d="M200.72 7.0107C200.889 7.00139 201.359 6.93518 201.481 6.88826C201.707 6.80344 201.773 6.62498 201.773 6.41772V1.06263H201.443C201.227 1.06263 200.936 1.07232 200.72 1.10063C200.316 1.15676 199.808 2.06032 199.695 2.47474H199.46V0.790039H205.334V2.47474H205.099C204.987 2.06032 204.479 1.15676 204.075 1.10063C203.859 1.07232 203.595 1.06263 203.351 1.06263H203.022V6.3709C203.022 6.57767 203.098 6.74731 203.313 6.84144C203.426 6.88826 203.906 6.99208 204.075 7.0107V7.21785H200.72V7.0107Z" fill="white"/>
<path d="M208.615 7.0107C208.785 7.00139 209.263 6.94488 209.386 6.89796C209.611 6.81314 209.677 6.63428 209.677 6.42742V4.94949C209.677 4.6579 209.601 4.46033 209.405 4.10253C209.066 3.44374 208.465 2.3241 208.154 1.79704C207.994 1.51466 207.788 1.28889 207.572 1.15676C207.403 1.06263 207.149 1.0065 206.97 0.996809V0.790039H210.287V0.996809C209.959 1.01581 209.348 1.10063 209.348 1.3074C209.348 1.42053 210.081 2.84155 210.804 4.10253C211.218 3.42513 212.299 1.61809 212.299 1.42053C212.299 1.13824 211.763 1.02512 211.34 0.996809V0.790039H213.756V0.996809C213.587 1.01581 213.342 1.10994 213.21 1.18506C212.957 1.33571 212.816 1.47704 212.628 1.74043C212.346 2.13584 211.641 3.331 211.237 4.05571C210.983 4.49795 210.927 4.78033 210.927 5.21326V6.38021C210.927 6.58737 211.002 6.75662 211.218 6.85075C211.331 6.89796 211.81 7.00139 211.98 7.0107V7.21785H208.615V7.0107Z" fill="white"/>
<path d="M78.3283 0.597412H77.8261V73.9005H78.3283V0.597412Z" fill="white"/>
<path d="M54.9307 2.87622C55.9464 0.431713 58.5911 0.0298045 58.5911 0.0298045C56.5498 -0.034369 50.0488 1.00326 49.4563 7.46055C49.2619 9.58439 50.0472 11.3733 50.9265 12.854C49.8302 12.0204 48.5109 10.6002 48.3157 8.68731C48.1559 7.13183 48.9711 4.7483 48.9711 4.7483C47.4113 6.59576 45.7472 8.90736 46.1118 12.0361C46.4519 14.9535 48.3899 16.9234 49.7027 18.5727C48.7423 18.1025 48.139 17.6194 47.254 16.6936C47.5392 20.1947 48.6319 22.8863 51.0882 24.2108C47.9567 23.9103 47.3327 21.7029 46.4377 19.2285C45.815 17.5026 44.7772 16.528 43.8278 15.4677C45.2983 15.7642 46.1296 16.7025 46.8475 17.7563C46.3821 14.7346 44.2077 13.426 41.1334 13.0164C42.4358 11.8349 44.5944 12.997 45.5959 13.5629C45.5959 13.5629 44.966 12.3201 44.3984 11.7098C42.894 10.0945 39.5995 10.475 37.626 11.1358C38.3379 9.89168 40.2771 8.93044 41.9506 9.4224C40.9217 8.52329 39.6496 7.89435 38.033 7.78695C35.2673 7.60237 32.9513 9.12189 31.5877 10.1584C31.9193 8.3649 33.3652 7.68758 34.6878 6.88861C30.0695 6.11882 27.7297 9.00595 26.2032 11.8737C26.0619 10.1118 27.6035 8.12458 27.6035 8.12458C21.9423 10.4653 22.7752 16.858 22.7752 16.858C21.7338 16.2283 21.7644 13.8699 22.1225 12.7709C22.1225 12.7709 20.9698 14.3978 20.9352 16.7288C20.8989 19.0839 22.5501 21.5935 22.5501 21.5935C20.8516 21.3563 19.7945 17.9542 19.7945 17.9542C18.8676 22.7349 22.9429 26.5899 22.9429 26.5899C21.113 26.3984 19.5336 24.1038 19.5336 24.1038C20.1861 28.8259 24.347 31.3718 24.347 31.3718C23.0466 31.6391 21.1429 30.3394 21.1429 30.3394C22.7409 33.9718 25.1045 35.7122 25.1045 35.7122C23.6549 35.7849 22.1225 34.0238 22.1225 34.0238C21.992 35.7122 22.9309 37.9377 22.9309 37.9377C21.4458 37.4143 21.0061 35.2849 21.0061 35.2849C19.7945 36.9862 20.0325 39.5085 20.0325 39.5085C18.595 38.5557 18.7015 36.5342 18.7015 36.5342C17.2999 37.2362 16.4888 40.028 16.4888 40.028C15.7886 38.5173 16.5279 36.7482 16.5279 36.7482C14.5802 37.2474 13.3444 39.5562 13.3444 39.5562C13.2206 38.143 14.12 36.4829 14.12 36.4829C12.5882 36.5317 11.2784 38.7108 11.2784 38.7108C11.0107 37.2689 12.3704 35.6871 12.3704 35.6871C10.684 35.5078 9.2344 37.3194 9.2344 37.3194C9.03228 35.6548 10.6602 34.4168 10.6602 34.4168C8.86694 33.9887 7.52751 35.5821 7.52751 35.5821C7.27825 33.834 9.18435 32.6117 9.18435 32.6117C7.74686 31.9926 6.18275 33.2746 6.18275 33.2746C6.00367 31.4901 7.98286 30.4787 7.98286 30.4787C6.77198 29.6463 5.18086 30.4617 5.18086 30.4617C5.44261 28.9996 7.25966 28.6057 7.25966 28.6057C6.22351 27.4288 4.67953 27.5439 4.67953 27.5439C5.19374 26.2599 6.88136 26.4824 6.88136 26.4824C6.06862 25.3288 4.58757 24.9298 4.58757 24.9298C5.51396 24.1446 6.83132 24.689 6.83132 24.689C6.4627 23.4127 4.9437 22.6646 4.9437 22.6646C6.13154 22.2708 7.26373 23.0568 7.26373 23.0568C7.12094 21.8915 5.88509 20.8131 5.88509 20.8131C7.26373 20.8725 8.21353 21.879 8.21353 21.879C8.20143 20.8793 7.52102 19.664 7.52102 19.664C8.63742 20.0085 9.62682 21.141 9.62682 21.141C9.74541 20.2024 9.47475 19.6353 9.47475 19.6353C11.3329 20.3345 12.4884 21.74 13.4743 23.3117C12.9685 20.4177 11.1486 18.3322 8.25148 18.083C3.20729 17.648 -0.0100742 23.3779 -6.96025e-06 27.5774C0.0109315 32.4741 1.66903 35.7312 3.85063 38.9051C6.38439 42.5896 10.7679 45.4295 14.8698 46.2761C13.5629 46.699 12.3365 47.7459 12.3365 48.9537C14.468 49.0946 16.2169 50.0603 17.122 51.2289H24.6051C26.4225 51.2289 28.0787 51.1893 28.6506 51.0677C30.0296 50.7704 30.6741 47.6558 32.3225 47.7157C33.9593 47.7766 33.4789 50.4255 32.0766 50.4941C31.6196 50.518 31.4042 50.3011 31.0166 50.1686C32.4976 53.7194 36.9008 49.7053 34.8499 47.2265C37.24 47.3231 37.0827 50.4202 35.4222 50.7398C38.0306 50.993 38.7884 48.3934 37.5877 46.5136C36.3882 44.6342 34.0009 44.9909 32.0887 45.896C30.176 46.7992 28.4542 47.5011 27.1812 47.6631C26.1576 47.7923 25.1581 47.7338 24.4885 47.3348C22.5348 46.1751 26.0152 44.2509 26.8549 43.7399C29.9401 41.8654 33.2281 39.6176 33.545 35.1608C33.7847 31.8367 32.5347 30.1023 31.5054 28.052C30.6612 26.3709 29.767 24.6782 29.6294 22.4958C29.4412 19.5259 31.6284 17.3153 34.2807 17.4296C37.9995 17.5886 39.9048 20.5538 40.1557 24.294C40.2538 25.776 39.9291 27.5427 39.829 29.0323C39.4144 35.236 42.3862 38.4135 45.7037 41.2894C48.7464 43.9237 51.7279 45.6387 55.4955 47.2543C55.7564 49.6415 57.21 52.277 60.0648 51.014C61.5447 53.5615 67.0341 53.0865 66.2657 49.3789C65.9075 47.6502 63.3572 47.3969 63.5372 45.4227C63.623 44.4815 64.7024 43.9718 65.6942 44.3127C66.7461 44.6754 67.2414 46.2769 67.1639 47.4176C68.8088 44.6681 67.1329 40.6561 63.7377 41.453C62.0117 41.8561 60.3089 44.8862 60.3089 44.8862C58.1199 43.7004 56.0266 42.5233 56.0266 42.5233C61.055 42.275 64.2377 40.0478 66.1032 36.6319C68.5321 37.1954 70.174 35.52 69.5295 33.527C69.5295 33.527 71.6519 34.1817 71.8931 35.9214C72.1335 37.6615 69.8167 38.0589 68.5031 37.2087C68.5031 37.2087 69.6159 39.8713 71.7474 39.3506C73.8796 38.8292 73.648 36.5636 73.1845 35.6625C72.7215 34.7618 70.7969 33.0581 71.2962 31.9065C71.7951 30.7562 74.111 31.5317 73.7718 34.5077C75.4626 32.1428 73.9768 28.378 71.2441 28.378C69.2205 28.378 68.4171 30.1059 67.8981 31.892C67.8981 31.892 67.2426 31.6391 66.5101 31.8104C66.0907 28.9398 64.2837 27.0701 61.3709 25.9283C58.7657 24.9051 56.2332 23.1364 55.9851 20.2892C55.8678 18.9458 56.2909 17.8597 57.2907 17.3475C59.8991 16.0139 61.6531 18.8896 62.1049 20.7808C62.0755 18.5581 62.912 17.4922 63.8994 16.3677C63.1052 15.038 61.5596 13.8986 59.4933 14.1599C58.0618 14.3417 56.6785 15.1176 56.6785 15.1176C57.3524 13.5766 58.5261 10.8543 61.1248 10.7287C63.2343 10.6273 64.2615 12.4893 64.879 14.3242C65.2271 10.8599 67.074 8.46067 68.7955 6.64307C66.7852 7.82737 65.7519 5.33682 63.8175 5.33682C61.0571 5.33682 59.7212 8.39117 57.373 8.68731C56.3925 8.80888 55.6548 8.10888 55.251 7.78695C54.5057 7.19601 53.9156 5.3215 54.9307 2.87622ZM64.1599 6.45724C64.8516 6.49242 65.5413 6.89918 65.5329 7.46055C65.5196 8.31895 64.7032 8.52853 64.0707 8.46552C63.2213 8.38196 62.8261 7.88873 62.8378 7.38223C62.8511 6.79294 63.465 6.42214 64.1599 6.45724ZM52.6391 34.5889C51.9315 34.723 51.045 34.4225 50.5175 34.0169C48.8146 32.7091 48.1148 29.1967 47.989 26.4993C48.7166 28.0488 49.8782 30.4969 51.9864 29.8506C52.7052 29.6293 53.5591 28.6683 53.5591 28.6683C54.2169 30.4682 54.7678 34.185 52.6391 34.5889ZM54.7937 11.7562C53.8385 11.389 54.108 8.44128 54.108 8.44128C54.3359 9.78146 55.9214 10.6959 57.2907 9.91068C57.2907 9.91068 55.8927 12.1787 54.7937 11.7562ZM64.1865 50.339C63.3501 51.7131 61.0599 50.1867 61.0599 50.1867C61.7189 49.6778 62.1384 48.7864 62.2808 47.6882C63.4391 47.7677 65.0751 48.8801 64.1865 50.339ZM58.6818 48.286C58.6818 48.286 58.4487 49.5587 57.7098 49.1927C56.97 48.8264 56.7942 47.7032 56.7942 47.7032C56.7942 47.7032 57.6476 48.063 58.6818 48.286ZM66.348 35.7332C66.5464 35.0417 66.5485 34.372 66.5101 33.6082C67.6851 33.8465 67.6084 35.6444 66.348 35.7332Z" fill="#EDBB47"/>
<path d="M100.523 15.1172C99.7733 15.5898 99.6067 17.0907 99.6067 18.8141V27.3194C99.6067 31.8505 95.1933 33.2681 92.4455 33.2681C87.588 33.2681 85.0902 30.7106 85.0902 27.8202V16.3124C85.0902 15.7009 84.8679 15.2561 84.2294 14.9225C83.7301 14.6724 82.7306 14.4778 82.2866 14.4499V13.8384H90.9188V14.4499C90.4194 14.4778 89.42 14.6446 88.9203 14.8111C88.2265 15.0335 88.0599 15.5619 88.0599 16.1734V27.264C88.0599 29.2654 88.7816 32.0726 93.1117 32.0726C97.525 32.0726 98.5519 29.0428 98.5519 27.2083V18.9806C98.5519 16.9518 98.2188 15.6451 97.6081 15.2561C96.9144 14.8111 95.4152 14.4778 94.7771 14.4499V13.8384H103.076V14.4499C102.576 14.4778 101.105 14.7557 100.523 15.1172Z" fill="white"/>
<path d="M110.405 23.4002C109.517 23.4002 108.906 23.0112 108.906 22.066C108.906 21.7881 109.101 21.5656 109.101 21.2045C107.685 21.2045 106.658 22.3997 106.325 23.0112V30.6827C106.325 31.2942 106.575 31.7393 107.074 31.9336C107.546 32.1283 108.351 32.2394 108.878 32.2673V32.823H101.828V32.2673C102.328 32.2394 102.661 32.1836 103.05 32.0725C103.577 31.9061 103.799 31.4335 103.799 30.8216V22.8443C103.743 22.2608 103.494 21.6771 103.05 21.3712C102.717 21.1488 102.189 20.954 101.69 20.9266V20.3983L106.13 20.0925L106.325 20.2872V22.1771H106.381C107.574 20.6483 108.962 19.9536 110.127 19.9536C110.988 19.9536 111.876 20.7319 111.876 21.6492C111.876 22.6219 111.349 23.4002 110.405 23.4002Z" fill="white"/>
<path d="M118.983 21.0377C117.65 21.0377 116.762 21.5656 116.096 22.3439V30.099C116.401 30.9884 117.289 32.6287 119.177 32.6287C121.286 32.6287 122.868 30.4327 122.868 26.6245C122.868 23.8452 121.786 21.0377 118.983 21.0377ZM119.399 33.2123C117.567 33.2123 115.846 32.3504 115.013 31.8225L113.986 33.4624L113.459 33.3513C113.542 32.2393 113.57 30.2101 113.57 28.2087V14.9781C113.57 14.3666 113.265 13.6715 112.821 13.3937C112.488 13.1711 111.489 12.9489 110.989 12.9211V12.3931L115.901 12.0874L116.096 12.2817V21.5656L116.179 21.5934C116.817 20.8987 118.178 19.8979 119.926 19.8979C123.118 19.8979 125.7 22.5108 125.7 26.5967C125.7 30.4048 122.674 33.2123 119.399 33.2123Z" fill="white"/>
<path d="M129.696 29.7934C129.696 31.3221 130.39 32.0168 131.584 32.0168C133.027 32.0168 133.638 31.3778 134.304 30.5442L134.415 25.6799C131.639 26.5411 129.696 27.3194 129.696 29.7934ZM136.858 33.1014C135.553 33.1014 134.859 32.5173 134.415 31.2385H134.332C133.332 32.4062 131.889 33.1566 130.224 33.1566C128.308 33.1566 127.004 31.9894 127.004 30.2102C127.004 27.9313 128.336 27.1525 129.724 26.6246C131.306 26.0131 133.222 25.5406 134.387 24.8737V23.317C134.387 22.8166 134.304 20.5094 132 20.5094C130.946 20.5094 130.557 21.1488 130.307 21.4546C130.307 21.8714 130.557 22.4833 130.557 23.0945C130.557 23.6786 129.946 24.2897 128.947 24.2897C128.031 24.2897 127.698 23.5671 127.698 22.8444C127.698 21.1767 130.057 19.8979 132.167 19.8979C134.915 19.8979 136.941 20.3147 136.941 24.0117C136.941 26.4578 136.802 29.3208 136.802 30.238C136.802 30.6548 137.19 31.6557 138.107 31.6557C139.022 31.6557 139.106 30.5717 139.189 29.5154H139.8C139.633 32.1005 138.579 33.1014 136.858 33.1014Z" fill="white"/>
<path d="M148.072 32.8231V32.2673C148.571 32.2394 148.988 32.1837 149.376 32.0726C149.904 31.9061 150.126 31.4336 150.126 30.8217V24.1228C150.126 22.2051 149.016 21.1488 147.822 21.1488C145.796 21.1488 144.658 22.4551 144.353 23.0945V30.6828C144.353 31.2943 144.602 31.7111 145.102 31.9337C145.519 32.1283 145.935 32.2394 146.407 32.2673V32.8231H139.856V32.2673C140.356 32.2394 140.689 32.1837 141.077 32.0726C141.605 31.9061 141.827 31.4336 141.827 30.8217V22.8444C141.771 22.2608 141.521 21.6772 141.077 21.3713C140.744 21.1488 140.217 20.9541 139.717 20.9267V20.3983L144.159 20.0926L144.353 20.2873V22.1772H144.408C145.463 21.1488 146.518 19.8979 148.905 19.8979C151.486 19.8979 152.68 21.6492 152.68 24.2897V30.7106C152.68 31.3221 152.901 31.7394 153.401 31.9611C153.79 32.1283 154.123 32.2394 154.622 32.2673V32.8231H148.072Z" fill="white"/>
<path d="M172.166 32.8231V32.212C172.665 32.1837 173.803 32.0726 174.164 31.9336C174.831 31.6836 175.024 31.1831 175.024 30.5717V23.4002H165.448V30.4327C165.448 31.0442 165.67 31.5168 166.309 31.7947C166.642 31.9336 167.808 32.1837 168.307 32.212V32.8231H159.703V32.212C160.202 32.1837 161.285 32.0726 161.646 31.9336C162.312 31.6836 162.506 31.1831 162.506 30.5717V16.3124C162.506 15.7009 162.312 15.2283 161.646 14.9504C161.174 14.7557 160.202 14.4778 159.703 14.4499V13.8384H168.307V14.4499C167.808 14.4778 166.809 14.6446 166.309 14.8111C165.615 15.0335 165.448 15.5619 165.448 16.1734V22.4833H175.024V16.3124C175.024 15.7009 174.802 15.2283 174.164 14.9504C173.692 14.7557 172.665 14.4778 172.166 14.4499V13.8384H180.771V14.4499C180.27 14.4778 179.326 14.6446 178.827 14.8111C178.133 15.0335 177.967 15.5619 177.967 16.1734V30.4327C177.967 31.0442 178.189 31.4889 178.827 31.7947C179.16 31.9611 180.27 32.1837 180.771 32.212V32.8231H172.166Z" fill="white"/>
<path d="M186.128 20.5373C184.379 20.5373 183.158 22.2608 183.075 24.8737L188.654 24.818C188.654 22.8166 188.238 20.5373 186.128 20.5373ZM186.461 33.1566C182.27 33.1566 180.327 30.0991 180.327 26.43C180.327 23.0945 182.464 19.8979 186.156 19.8979C189.959 19.8979 191.346 22.3997 191.346 25.2348V25.4848H183.075V25.7906C183.075 29.3765 184.241 31.9337 187.21 31.9337C189.376 31.9337 190.07 31.1553 191.124 29.4597L191.625 29.7934C190.652 31.7668 188.793 33.1566 186.461 33.1566Z" fill="white"/>
<path d="M195.205 29.7934C195.205 31.3221 195.899 32.0168 197.093 32.0168C198.536 32.0168 199.146 31.3778 199.813 30.5442L199.924 25.6799C197.148 26.5411 195.205 27.3194 195.205 29.7934ZM202.366 33.1014C201.061 33.1014 200.367 32.5173 199.924 31.2385H199.84C198.841 32.4062 197.397 33.1566 195.732 33.1566C193.817 33.1566 192.513 31.9894 192.513 30.2102C192.513 27.9313 193.845 27.1525 195.233 26.6246C196.815 26.0131 198.73 25.5406 199.895 24.8737V23.317C199.895 22.8166 199.813 20.5094 197.509 20.5094C196.454 20.5094 196.065 21.1488 195.816 21.4546C195.816 21.8714 196.065 22.4833 196.065 23.0945C196.065 23.6786 195.455 24.2897 194.455 24.2897C193.54 24.2897 193.206 23.5671 193.206 22.8444C193.206 21.1767 195.566 19.8979 197.676 19.8979C200.423 19.8979 202.45 20.3147 202.45 24.0117C202.45 26.4578 202.311 29.3208 202.311 30.238C202.311 30.6548 202.699 31.6557 203.615 31.6557C204.531 31.6557 204.614 30.5717 204.698 29.5154H205.308C205.142 32.1005 204.087 33.1014 202.366 33.1014Z" fill="white"/>
<path d="M205.142 32.823V32.2672C205.642 32.2393 205.975 32.1836 206.363 32.0725C206.89 31.906 207.113 31.4335 207.113 30.8216V15.0614C207.057 14.422 206.807 13.783 206.363 13.4772C206.03 13.2546 204.92 12.9489 204.42 12.9211V12.3931L209.444 12.0874L209.639 12.2817V30.6548C209.639 31.2667 209.888 31.711 210.388 31.9336C210.804 32.1282 211.109 32.2393 211.609 32.2672V32.823H205.142Z" fill="white"/>
<path d="M217.244 33.1014C214.968 33.1014 213.886 31.7394 213.886 29.2654V21.5099H211.221V20.3146H213.941V16.0066H216.356V20.3146H220.159V21.5099H216.384V28.9313C216.384 30.5159 216.828 31.5442 218.521 31.5442C219.937 31.5442 220.047 30.4327 220.214 29.3765H220.825C220.603 31.3778 219.298 33.1014 217.244 33.1014Z" fill="white"/>
<path d="M229.069 32.823V32.2672C229.568 32.2393 229.984 32.1836 230.373 32.0725C230.901 31.906 231.122 31.4335 231.122 30.8216V24.1227C231.122 22.205 230.012 21.1488 228.818 21.1488C226.792 21.1488 225.655 22.455 225.349 23.0944V30.6827C225.349 31.2942 225.599 31.711 226.098 31.9336C226.515 32.1282 226.903 32.2393 227.403 32.2672V32.823H220.852V32.2672C221.352 32.2393 221.685 32.1836 222.074 32.0725C222.601 31.906 222.823 31.4335 222.823 30.8216V14.9781C222.768 14.3941 222.518 13.6715 222.074 13.3657C221.741 13.1436 220.714 12.9489 220.214 12.9211V12.3931L225.154 12.0874L225.349 12.2817V22.1771H225.405C226.459 21.1488 227.57 19.8979 229.957 19.8979C232.538 19.8979 233.676 21.6491 233.676 24.2896V30.7105C233.676 31.322 233.898 31.7393 234.398 31.961C234.786 32.1282 235.12 32.2393 235.619 32.2672V32.823H229.069Z" fill="white"/>
<path d="M91.5577 60.7057C86.0897 60.7057 82.3705 56.9251 82.3705 51.0329C82.3705 45.3066 86.5616 40.9431 92.1405 40.9431C93.6671 40.9431 95.4991 41.6658 96.3316 42.4437L97.1644 41.026H98.3027L98.4135 47.8917H97.7473C96.7482 44.6672 94.8606 41.7486 91.2802 41.7486C88.4488 41.7486 85.7008 44.5009 85.7008 50.8103C85.7008 55.8415 88.7263 59.2602 92.3627 59.2602C95.7492 59.2602 97.331 57.5088 98.4135 55.091L99.1352 55.48C97.9969 58.0649 95.7766 60.7057 91.5577 60.7057Z" fill="white"/>
<path d="M106.158 48.0028C103.271 48.0028 102.522 51.1993 102.522 53.8397C102.522 57.1477 103.549 60.0389 106.158 60.0389C108.628 60.0389 109.711 57.2314 109.711 53.8958C109.711 50.9772 108.85 48.0028 106.158 48.0028ZM105.992 60.6779C102.661 60.6779 99.7187 58.1486 99.7187 54.0622C99.7187 50.1156 102.3 47.3638 106.186 47.3638C110.072 47.3638 112.514 50.1705 112.514 53.8684C112.514 57.5649 110.183 60.6779 105.992 60.6779Z" fill="white"/>
<path d="M112.793 60.289V59.7329C113.293 59.7054 113.626 59.6492 114.014 59.5381C114.542 59.3718 114.764 58.8992 114.764 58.2876V42.5275C114.708 41.8885 114.458 41.2487 114.014 40.9433C113.681 40.7208 112.571 40.415 112.072 40.3871V39.8588L117.095 39.5535L117.289 39.7481V58.1204C117.289 58.7328 117.54 59.1767 118.039 59.3992C118.456 59.5943 118.761 59.7054 119.261 59.7329V60.289H112.793Z" fill="white"/>
<path d="M119.926 60.289V59.7329C120.426 59.7054 120.759 59.6492 121.148 59.5381C121.675 59.3718 121.897 58.8992 121.897 58.2876V42.5275C121.842 41.8885 121.592 41.2487 121.148 40.9433C120.815 40.7208 119.704 40.415 119.205 40.3871V39.8588L124.229 39.5535L124.423 39.7481V58.1204C124.423 58.7328 124.673 59.1767 125.173 59.3992C125.589 59.5943 125.894 59.7054 126.394 59.7329V60.289H119.926Z" fill="white"/>
<path d="M129.919 57.2588C129.919 58.7876 130.613 59.4827 131.807 59.4827C133.25 59.4827 133.861 58.8437 134.527 58.0101L134.638 53.1458C131.862 54.0073 129.919 54.7848 129.919 57.2588ZM137.08 60.5668C135.776 60.5668 135.082 59.9828 134.638 58.704H134.555C133.555 59.8717 132.112 60.6226 130.446 60.6226C128.531 60.6226 127.227 59.4552 127.227 57.6764C127.227 55.3972 128.559 54.6184 129.947 54.0901C131.529 53.4786 133.444 53.006 134.61 52.3399V50.7829C134.61 50.282 134.527 47.9753 132.223 47.9753C131.168 47.9753 130.78 48.6143 130.53 48.9204C130.53 49.3369 130.78 49.9492 130.78 50.5603C130.78 51.1444 130.169 51.7559 129.17 51.7559C128.254 51.7559 127.921 51.0329 127.921 50.3103C127.921 48.6426 130.28 47.3638 132.39 47.3638C135.138 47.3638 137.164 47.7806 137.164 51.4772C137.164 53.9237 137.025 56.7862 137.025 57.7038C137.025 58.1203 137.413 59.1217 138.329 59.1217C139.245 59.1217 139.328 58.0375 139.412 56.9813H140.023C139.856 59.5663 138.801 60.5668 137.08 60.5668Z" fill="white"/>
<path d="M146.574 48.5034C145.241 48.5034 144.353 49.0317 143.687 49.8096V57.5651C143.992 58.4541 144.88 60.0944 146.768 60.0944C148.877 60.0944 150.459 57.8988 150.459 54.0902C150.459 51.3109 149.377 48.5034 146.574 48.5034ZM146.99 60.6781C145.158 60.6781 143.437 59.8165 142.604 59.2882L141.577 60.9281L141.05 60.817C141.133 59.7054 141.161 57.6766 141.161 55.6748V42.4439C141.161 41.8323 140.855 41.1373 140.411 40.8597C140.078 40.6371 139.079 40.415 138.58 40.3871V39.8588L143.493 39.5535L143.687 39.7481V49.0317L143.77 49.0595C144.409 48.3644 145.769 47.3639 147.517 47.3639C150.709 47.3639 153.291 49.9768 153.291 54.0624C153.291 57.8705 150.265 60.6781 146.99 60.6781Z" fill="white"/>
<path d="M160.868 48.0028C157.982 48.0028 157.233 51.1993 157.233 53.8397C157.233 57.1477 158.259 60.0389 160.868 60.0389C163.339 60.0389 164.421 57.2314 164.421 53.8958C164.421 50.9772 163.561 48.0028 160.868 48.0028ZM160.702 60.6779C157.371 60.6779 154.429 58.1486 154.429 54.0622C154.429 50.1156 157.01 47.3638 160.896 47.3638C164.782 47.3638 167.225 50.1705 167.225 53.8684C167.225 57.5649 164.893 60.6779 160.702 60.6779Z" fill="white"/>
<path d="M176.385 50.8658C175.497 50.8658 174.887 50.4767 174.887 49.5316C174.887 49.2541 175.081 49.0316 175.081 48.6705C173.665 48.6705 172.638 49.8656 172.305 50.4767V58.1487C172.305 58.7601 172.554 59.2053 173.055 59.3992C173.527 59.5942 174.331 59.7053 174.859 59.7328V60.289H167.808V59.7328C168.308 59.7053 168.641 59.6492 169.03 59.5381C169.557 59.3717 169.779 58.8992 169.779 58.2876V50.3104C169.723 49.7267 169.474 49.1431 169.03 48.8369C168.697 48.6143 168.169 48.4205 167.67 48.3918V47.8642L172.111 47.5581L172.305 47.7528V49.6431H172.361C173.554 48.1143 174.941 47.4192 176.107 47.4192C176.969 47.4192 177.856 48.1979 177.856 49.1151C177.856 50.0878 177.329 50.8658 176.385 50.8658Z" fill="white"/>
<path d="M180.993 57.2588C180.993 58.7876 181.687 59.4827 182.881 59.4827C184.324 59.4827 184.934 58.8437 185.601 58.0101L185.712 53.1458C182.936 54.0073 180.993 54.7848 180.993 57.2588ZM188.154 60.5668C186.849 60.5668 186.155 59.9828 185.712 58.704H185.628C184.629 59.8717 183.186 60.6226 181.52 60.6226C179.605 60.6226 178.3 59.4552 178.3 57.6764C178.3 55.3972 179.633 54.6184 181.021 54.0901C182.602 53.4786 184.518 53.006 185.683 52.3399V50.7829C185.683 50.282 185.601 47.9753 183.296 47.9753C182.242 47.9753 181.853 48.6143 181.604 48.9204C181.604 49.3369 181.853 49.9492 181.853 50.5603C181.853 51.1444 181.243 51.7559 180.243 51.7559C179.328 51.7559 178.994 51.0329 178.994 50.3103C178.994 48.6426 181.354 47.3638 183.463 47.3638C186.211 47.3638 188.237 47.7806 188.237 51.4772C188.237 53.9237 188.099 56.7862 188.099 57.7038C188.099 58.1203 188.487 59.1217 189.403 59.1217C190.319 59.1217 190.402 58.0375 190.485 56.9813H191.096C190.93 59.5663 189.875 60.5668 188.154 60.5668Z" fill="white"/>
<path d="M196.176 60.5671C193.9 60.5671 192.818 59.2055 192.818 56.7315V48.976H190.154V47.7808H192.873V43.4727H195.288V47.7808H199.091V48.976H195.316V56.3979C195.316 57.9816 195.76 59.0104 197.453 59.0104C198.869 59.0104 198.98 57.8988 199.146 56.8426H199.757C199.535 58.844 198.231 60.5671 196.176 60.5671Z" fill="white"/>
<path d="M203.06 43.8062C202.144 43.8062 201.367 43.0275 201.367 42.1097C201.367 41.1658 202.144 40.3596 203.06 40.3596C204.086 40.3596 204.809 41.1096 204.809 41.9994C204.809 42.9721 204.059 43.8062 203.06 43.8062ZM200.062 60.2889V59.7328C200.562 59.7053 200.895 59.6491 201.283 59.5381C201.811 59.3717 202.032 58.8438 202.032 58.2875V50.3104C201.978 49.7267 201.728 49.2258 201.283 48.9205C200.95 48.6979 200.145 48.4205 199.646 48.3918V47.8642L204.365 47.5581L204.558 47.7527V58.1203C204.558 58.704 204.809 59.1766 205.308 59.3991C205.752 59.5942 206.168 59.7053 206.529 59.7328V60.2889H200.062Z" fill="white"/>
<path d="M217.438 49.8095C216.3 52.34 215.411 54.5627 214.19 57.4815C213.775 58.4266 213.469 59.2603 213.108 60.4833H212.137C210.193 55.5636 209.583 54.1738 207.723 49.6706C207.391 48.8927 206.474 48.4205 205.669 48.309V47.7253H211.831V48.3644C211.193 48.3918 210.249 48.5033 210.249 48.9479C210.249 48.9759 210.304 49.198 210.444 49.5316C210.971 50.9493 212.359 54.341 213.496 57.2315H213.58C214.634 54.7021 215.467 52.8126 216.522 50.0604C216.606 49.8657 216.661 49.5042 216.661 49.2816C216.633 48.7255 215.051 48.3364 214.607 48.2816V47.7253H219.547V48.2529C219.02 48.3364 217.799 49.0042 217.438 49.8095Z" fill="white"/>
<path d="M224.628 48.0028C222.879 48.0028 221.658 49.7267 221.575 52.3399L227.153 52.2834C227.153 50.282 226.737 48.0028 224.628 48.0028ZM224.961 60.6226C220.769 60.6226 218.827 57.5649 218.827 53.8958C218.827 50.5603 220.964 47.3638 224.655 47.3638C228.458 47.3638 229.846 49.8656 229.846 52.7006V52.951H221.575V53.256C221.575 56.8424 222.74 59.3991 225.71 59.3991C227.875 59.3991 228.569 58.6212 229.624 56.9251L230.123 57.2588C229.152 59.2327 227.292 60.6226 224.961 60.6226Z" fill="white"/>
<path d="M118.756 69.8306H118.565C118.47 68.8479 118.183 68.0914 117.288 68.0914C116.55 68.0914 116.012 68.6222 116.012 69.1957C116.012 69.7437 116.264 69.9959 116.976 70.3521C118.07 70.909 118.478 71.3525 118.478 72.057C118.478 73.2223 117.341 73.9962 116.142 73.9962C115.491 73.9962 114.961 73.7696 114.709 73.5616L114.31 73.9699H114.015L114.501 71.9354H114.701C114.813 72.8571 115.213 73.7348 116.316 73.7348C117.158 73.7348 117.662 73.1096 117.662 72.5264C117.662 71.9964 117.454 71.6745 116.603 71.2483C115.673 70.7697 115.248 70.4042 115.248 69.5955C115.248 68.6136 116.211 67.8301 117.393 67.8301C117.896 67.8301 118.322 68.0393 118.547 68.2654L118.956 67.8571H119.251L118.756 69.8306Z" fill="white"/>
<path d="M121.71 71.2399C121.511 71.2399 121.25 71.126 121.25 70.8485C121.25 70.6656 121.432 70.4745 121.693 70.3347C121.649 70.1093 121.502 70.0217 121.19 70.0217C120.434 70.0217 119.748 71.7699 119.748 72.8135C119.748 73.3956 119.922 73.7175 120.373 73.7175C121.007 73.7175 121.441 73.2134 121.797 72.5526L121.971 72.6306C121.415 73.6569 120.807 74.0047 120.234 74.0047C119.626 74.0047 118.932 73.7348 118.932 72.6306C118.932 71.7351 119.8 69.8743 121.267 69.8743C121.823 69.8743 122.153 70.2741 122.153 70.6567C122.153 70.9527 122.006 71.2399 121.71 71.2399Z" fill="white"/>
<path d="M125.584 73.9788C125.211 73.9788 124.655 73.8313 124.655 73.3002C124.655 73.0922 124.724 72.8571 124.829 72.5784L125.341 71.2225C125.428 70.9959 125.515 70.7524 125.515 70.5871C125.515 70.222 125.315 70.1525 125.081 70.1525C124.612 70.1525 124.169 70.5091 123.769 71.231L122.944 73.8835H122.18L123.848 68.5866C123.943 68.3002 123.969 68.1172 123.969 68.0045C123.969 67.8127 123.821 67.7521 123.631 67.7258C123.405 67.7 123.318 67.7 123.109 67.6911V67.5178L125.002 67.4302L123.96 70.5787L123.995 70.5871C124.325 70.1699 124.716 69.8742 125.211 69.8742C125.793 69.8742 126.209 70.3262 126.209 70.8484C126.209 70.97 126.131 71.2572 126.044 71.4915L125.567 72.7702C125.454 73.0748 125.376 73.3349 125.376 73.4658C125.376 73.7437 125.541 73.7611 125.697 73.7611C126.114 73.7611 126.366 73.3524 126.652 72.6131L126.809 72.6653C126.496 73.44 126.192 73.9788 125.584 73.9788Z" fill="white"/>
<path d="M129.389 70.0217C128.477 70.0217 127.904 71.6225 127.904 72.648C127.904 73.4485 128.164 73.8399 128.503 73.8399C129.476 73.8399 129.988 72.2481 129.988 71.2137C129.988 70.4132 129.702 70.0217 129.389 70.0217ZM128.373 74.0047C127.782 74.0047 127.088 73.5701 127.088 72.4832C127.088 71.5522 127.904 69.8743 129.519 69.8743C130.109 69.8743 130.804 70.3174 130.804 71.4047C130.804 72.3353 130.005 74.0047 128.373 74.0047Z" fill="white"/>
<path d="M133.498 70.0217C132.586 70.0217 132.013 71.6225 132.013 72.648C132.013 73.4485 132.273 73.8399 132.612 73.8399C133.585 73.8399 134.097 72.2481 134.097 71.2137C134.097 70.4132 133.81 70.0217 133.498 70.0217ZM132.482 74.0047C131.891 74.0047 131.197 73.5701 131.197 72.4832C131.197 71.5522 132.013 69.8743 133.628 69.8743C134.219 69.8743 134.914 70.3174 134.914 71.4047C134.914 72.3353 134.115 74.0047 132.482 74.0047Z" fill="white"/>
<path d="M136.234 72.7876C136.148 73.0486 136.069 73.3176 136.069 73.4484C136.069 73.7264 136.217 73.7611 136.373 73.7611C136.79 73.7611 137.059 73.3524 137.346 72.6131L137.502 72.6653C137.189 73.44 136.877 73.9788 136.261 73.9788C135.887 73.9788 135.374 73.8399 135.374 73.3091C135.374 73.1007 135.453 72.8397 135.531 72.5784L136.79 68.5866C136.886 68.2917 136.912 68.1172 136.912 68.0045C136.912 67.8127 136.755 67.7521 136.564 67.7258C136.347 67.7 136.252 67.7 136.043 67.6911V67.5178L137.945 67.4302L136.234 72.7876Z" fill="white"/>
<path d="M141.897 70.0217C140.986 70.0217 140.412 71.6225 140.412 72.648C140.412 73.4485 140.673 73.8399 141.012 73.8399C141.984 73.8399 142.496 72.2481 142.496 71.2137C142.496 70.4132 142.21 70.0217 141.897 70.0217ZM140.882 74.0047C140.291 74.0047 139.596 73.5701 139.596 72.4832C139.596 71.5522 140.412 69.8743 142.027 69.8743C142.618 69.8743 143.313 70.3174 143.313 71.4047C143.313 72.3353 142.514 74.0047 140.882 74.0047Z" fill="white"/>
<path d="M147.681 68.5964C147.508 68.5964 147.195 68.4998 147.195 68.2127C147.195 68.0915 147.299 67.9262 147.325 67.7433C147.282 67.6132 147.23 67.5959 147.134 67.5959C146.579 67.5959 146.161 68.1784 145.822 69.405L145.649 70.0128H146.743L146.648 70.3001H145.571C145.293 71.37 144.963 72.7267 144.668 73.6743C144.46 74.3441 144.147 74.9964 143.617 75.4313C143.166 75.8139 142.827 75.9354 142.401 75.9354C141.715 75.9354 141.524 75.5873 141.524 75.2395C141.524 75.0484 141.681 74.7876 141.976 74.7876C142.159 74.7876 142.444 74.8918 142.444 75.2048C142.444 75.3877 142.367 75.4658 142.262 75.6136C142.28 75.7355 142.376 75.7702 142.436 75.7702C143.079 75.7702 143.461 75.1963 143.852 73.9179C144.277 72.5179 144.572 71.2137 144.807 70.3001H143.886L143.973 70.0128H144.894L144.989 69.6651C145.171 68.9607 145.467 68.3872 146.005 67.9005C146.413 67.5264 146.83 67.4214 147.238 67.4214C147.838 67.4214 148.124 67.8043 148.124 68.1609C148.124 68.3091 147.976 68.5964 147.681 68.5964Z" fill="white"/>
<path d="M151.4 68.1867H151.009L150.262 70.9006H150.679C151.86 70.9006 152.529 70.2653 152.529 69.2999C152.529 68.6395 152.225 68.1867 151.4 68.1867ZM150.592 71.1607H150.184L149.628 73.1613C149.611 73.2223 149.602 73.2829 149.602 73.3265C149.602 73.4485 149.654 73.5094 149.785 73.57C149.871 73.6136 150.219 73.6917 150.384 73.7001L150.341 73.8835H147.692L147.735 73.7001C147.883 73.6917 148.257 73.6569 148.386 73.6136C148.613 73.5353 148.708 73.3697 148.76 73.1876L150.002 68.7175C150.019 68.6395 150.036 68.5692 150.036 68.5171C150.036 68.4044 149.984 68.3439 149.863 68.2829C149.741 68.2307 149.411 68.1435 149.281 68.1347L149.333 67.9436H151.739C152.823 67.9436 153.449 68.4134 153.449 69.2219C153.449 70.4389 152.277 71.1607 150.592 71.1607Z" fill="white"/>
<path d="M156.897 73.9788C156.411 73.9788 156.073 73.787 156.073 73.1702L156.038 73.1613C155.734 73.5963 155.265 73.9962 154.771 73.9962C154.188 73.9962 153.763 73.5353 153.763 73.0219C153.763 72.9004 153.841 72.6132 153.936 72.379L154.432 71.1001C154.553 70.7956 154.614 70.5351 154.614 70.3957C154.614 70.1441 154.519 70.0831 154.354 70.0831C153.945 70.0831 153.702 70.5177 153.415 71.2573L153.259 71.1963C153.563 70.4305 153.858 69.8916 154.475 69.8916C154.849 69.8916 155.343 70.0831 155.343 70.5698C155.343 70.7782 155.274 70.9875 155.161 71.292L154.631 72.648C154.544 72.8741 154.467 73.1181 154.467 73.2744C154.467 73.648 154.666 73.7175 154.892 73.7175C155.369 73.7175 155.839 73.2656 156.107 72.7876L156.985 70.0043H157.784L156.872 72.7703C156.82 72.9436 156.733 73.2917 156.733 73.3955C156.733 73.6828 156.854 73.7611 157.02 73.7611C157.427 73.7611 157.679 73.3524 157.966 72.6132L158.14 72.6653C157.827 73.44 157.514 73.9788 156.897 73.9788Z" fill="white"/>
<path d="M160.98 70.1699C160.46 70.1699 160.078 70.5613 159.8 70.97L159.183 72.9003C159.183 73.7001 159.608 73.8225 159.904 73.8225C160.807 73.8225 161.554 72.0917 161.554 71.0654C161.554 70.2653 161.207 70.1699 160.98 70.1699ZM159.878 74.0135C159.218 74.0135 158.523 73.709 158.523 72.9088C158.523 72.5525 158.584 72.3789 158.654 72.1523L159.791 68.5866C159.886 68.3002 159.921 68.1172 159.921 68.0045C159.921 67.8127 159.765 67.7521 159.574 67.7258C159.357 67.7 159.261 67.7 159.053 67.6911V67.5178L160.946 67.4302L159.921 70.5524L159.947 70.5613C160.199 70.2652 160.616 69.8742 161.11 69.8742C161.693 69.8742 162.37 70.1525 162.37 71.2399C162.37 72.1438 161.441 74.0135 159.878 74.0135Z" fill="white"/>
<path d="M163.648 72.7876C163.561 73.0486 163.483 73.3176 163.483 73.4484C163.483 73.7264 163.631 73.7611 163.787 73.7611C164.204 73.7611 164.473 73.3524 164.76 72.6131L164.916 72.6653C164.603 73.44 164.291 73.9788 163.674 73.9788C163.301 73.9788 162.788 73.8399 162.788 73.3091C162.788 73.1007 162.867 72.8397 162.945 72.5784L164.204 68.5866C164.3 68.2917 164.326 68.1172 164.326 68.0045C164.326 67.8127 164.169 67.7521 163.979 67.7258C163.761 67.7 163.666 67.7 163.457 67.6911V67.5178L165.359 67.4302L163.648 72.7876Z" fill="white"/>
<path d="M167.253 68.8216C166.966 68.8216 166.818 68.6047 166.818 68.3349C166.818 68.0045 167.044 67.7258 167.409 67.7258C167.652 67.7258 167.809 67.9609 167.809 68.204C167.809 68.5345 167.609 68.8216 167.253 68.8216ZM166.471 73.9788C166.098 73.9788 165.568 73.8313 165.568 73.3002C165.568 73.0922 165.629 72.883 165.742 72.5784L166.324 71.1001C166.419 70.857 166.524 70.5177 166.524 70.4131C166.524 70.1614 166.402 70.083 166.237 70.083C165.829 70.083 165.585 70.5177 165.299 71.2572L165.134 71.1962C165.447 70.4304 165.742 69.8742 166.367 69.8742C166.74 69.8742 167.235 70.1004 167.235 70.6133C167.235 70.8129 167.07 71.2399 166.966 71.4915L166.471 72.7702C166.35 73.0748 166.272 73.3265 166.272 73.4573C166.272 73.7348 166.428 73.761 166.584 73.761C167.001 73.761 167.262 73.3524 167.548 72.6131L167.705 72.6652C167.392 73.44 167.079 73.9788 166.471 73.9788Z" fill="white"/>
<path d="M170.779 71.2399C170.579 71.2399 170.318 71.126 170.318 70.8485C170.318 70.6656 170.501 70.4745 170.761 70.3347C170.718 70.1093 170.57 70.0217 170.258 70.0217C169.502 70.0217 168.816 71.7699 168.816 72.8135C168.816 73.3956 168.99 73.7175 169.441 73.7175C170.075 73.7175 170.509 73.2134 170.865 72.5526L171.04 72.6306C170.483 73.6569 169.875 74.0047 169.302 74.0047C168.694 74.0047 167.999 73.7348 167.999 72.6306C167.999 71.7351 168.869 69.8743 170.336 69.8743C170.891 69.8743 171.221 70.2741 171.221 70.6567C171.221 70.9527 171.074 71.2399 170.779 71.2399Z" fill="white"/>
<path d="M180.628 68.1347C180.472 68.1435 180.133 68.1952 179.978 68.2396C179.743 68.3091 179.656 68.4824 179.604 68.6742L178.353 73.1528C178.336 73.2307 178.318 73.2917 178.318 73.3349C178.318 73.4574 178.388 73.5006 178.501 73.57C178.588 73.6222 178.935 73.6917 179.091 73.7001L179.039 73.8835H176.382L176.434 73.7001C176.59 73.6917 176.99 73.6569 177.111 73.6136C177.337 73.5353 177.433 73.3786 177.485 73.1876L178.119 70.9264H175.262L174.637 73.1528C174.619 73.2307 174.61 73.2829 174.61 73.3265C174.61 73.4485 174.662 73.5094 174.793 73.57C174.88 73.6136 175.227 73.6917 175.392 73.7001L175.348 73.8835H172.7L172.743 73.7001C172.891 73.6917 173.264 73.6569 173.395 73.6136C173.62 73.5353 173.716 73.3697 173.768 73.1876L175.01 68.7175C175.027 68.6395 175.044 68.5692 175.044 68.5171C175.044 68.4044 174.992 68.3439 174.871 68.2829C174.749 68.2307 174.419 68.1435 174.289 68.1347L174.341 67.9436H176.999L176.946 68.1347C176.781 68.1435 176.434 68.1952 176.268 68.2396C176.043 68.3091 175.939 68.4913 175.886 68.6742L175.34 70.6482H178.188L178.726 68.7175C178.744 68.6395 178.761 68.5607 178.761 68.5087C178.761 68.3959 178.701 68.3439 178.588 68.2829C178.458 68.2307 178.128 68.1435 177.971 68.1347L178.04 67.9436H180.689L180.628 68.1347Z" fill="white"/>
<path d="M181.794 70.0476C181.289 70.0476 180.777 70.9701 180.542 71.8393C181.767 71.6225 182.176 70.9091 182.176 70.5092C182.176 70.2309 182.071 70.0476 181.794 70.0476ZM180.499 72.0223C180.438 72.3095 180.369 72.5958 180.369 72.8398C180.369 73.4311 180.561 73.7175 181.012 73.7175C181.645 73.7175 182.063 73.2134 182.419 72.5527L182.575 72.6306C182.036 73.6569 181.446 74.0047 180.881 74.0047C180.265 74.0047 179.553 73.7175 179.553 72.6132C179.553 71.7178 180.413 69.8743 182.036 69.8743C182.428 69.8743 182.774 70.0649 182.774 70.4572C182.774 71.3958 181.351 71.8915 180.499 72.0223Z" fill="white"/>
<path d="M185.329 70.0564C184.434 70.0564 183.757 71.7787 183.757 72.8135C183.757 73.6137 184.034 73.7091 184.261 73.7091C184.755 73.7091 185.129 73.3092 185.398 72.8572L186.058 70.8312C185.953 70.3 185.745 70.0564 185.329 70.0564ZM186.197 73.9788C185.676 73.9788 185.381 73.7522 185.381 73.1702L185.346 73.1614C185.016 73.6396 184.625 74.0047 184.13 74.0047C183.548 74.0047 182.94 73.7175 182.94 72.6306C182.94 71.7351 183.792 69.8743 185.355 69.8743C185.728 69.8743 186.058 70.0739 186.136 70.5092H186.162L186.362 69.9264H187.144L186.162 72.7703C186.076 73.013 186.024 73.3092 186.024 73.413C186.024 73.7001 186.154 73.7611 186.318 73.7611C186.727 73.7611 186.978 73.3524 187.265 72.6132L187.439 72.6653C187.126 73.4401 186.814 73.9788 186.197 73.9788Z" fill="white"/>
<path d="M188.604 72.7876C188.517 73.0486 188.439 73.3176 188.439 73.4484C188.439 73.7264 188.586 73.7611 188.743 73.7611C189.16 73.7611 189.429 73.3524 189.715 72.6131L189.872 72.6653C189.559 73.44 189.246 73.9788 188.63 73.9788C188.256 73.9788 187.744 73.8399 187.744 73.3091C187.744 73.1007 187.822 72.8397 187.9 72.5784L189.16 68.5866C189.255 68.2917 189.281 68.1172 189.281 68.0045C189.281 67.8127 189.125 67.7521 188.934 67.7258C188.717 67.7 188.621 67.7 188.413 67.6911V67.5178L190.315 67.4302L188.604 72.7876Z" fill="white"/>
<path d="M192.999 70.3H191.896C191.661 71.0912 191.245 72.4831 191.167 72.7876C191.097 73.0486 191.002 73.3176 191.002 73.4485C191.002 73.7264 191.167 73.7611 191.324 73.7611C191.74 73.7611 192.052 73.3349 192.339 72.5958L192.504 72.6479C192.192 73.4226 191.818 73.9788 191.21 73.9788C190.837 73.9788 190.307 73.8399 190.307 73.3091C190.307 73.1096 190.368 72.9004 190.394 72.8051C190.498 72.4136 191.08 70.5007 191.141 70.3H190.307L190.403 70.0127H191.245L191.627 68.6658H192.382L191.983 70.0127H193.094L192.999 70.3Z" fill="white"/>
<path d="M196.222 73.9788C195.848 73.9788 195.292 73.8313 195.292 73.3002C195.292 73.0922 195.361 72.8571 195.466 72.5784L195.978 71.2225C196.065 70.9959 196.152 70.7524 196.152 70.5871C196.152 70.222 195.952 70.1525 195.717 70.1525C195.249 70.1525 194.806 70.5091 194.407 71.231L193.581 73.8835H192.817L194.484 68.5866C194.58 68.3002 194.606 68.1172 194.606 68.0045C194.606 67.8127 194.459 67.7521 194.267 67.7258C194.042 67.7 193.955 67.7 193.746 67.6911V67.5178L195.64 67.4302L194.597 70.5787L194.632 70.5871C194.962 70.1699 195.353 69.8742 195.848 69.8742C196.43 69.8742 196.846 70.3262 196.846 70.8484C196.846 70.97 196.769 71.2572 196.682 71.4915L196.204 72.7702C196.091 73.0748 196.013 73.3349 196.013 73.4658C196.013 73.7437 196.179 73.7611 196.334 73.7611C196.751 73.7611 197.003 73.3524 197.29 72.6131L197.446 72.6653C197.133 73.44 196.829 73.9788 196.222 73.9788Z" fill="white"/>
<path d="M85.9776 68.3288C85.7828 68.3288 85.5964 68.3369 85.4101 68.3453L84.1142 72.9843C84.004 73.3914 84.2073 73.637 84.7833 73.637C86.4769 73.637 87.7729 72.1958 87.7729 70.4145C87.7729 69.007 87.1122 68.3288 85.9776 68.3288ZM84.6816 73.8834H82.1749L82.2173 73.7048C82.3612 73.6968 82.7255 73.6629 82.8525 73.6204C83.0727 73.5441 83.1659 73.3829 83.2168 73.2048L84.4275 68.8458C84.4445 68.7695 84.4614 68.7015 84.4614 68.6503C84.4614 68.5404 84.4106 68.4811 84.292 68.4217C84.1734 68.3708 83.852 68.286 83.725 68.2775L83.7758 68.0913H86.2821C87.4425 68.0913 88.6787 68.6676 88.6787 70.3383C88.6787 72.5602 86.7988 73.8834 84.6816 73.8834Z" fill="white"/>
<path d="M91.0935 70.1179C90.2041 70.1179 89.6451 71.6786 89.6451 72.6791C89.6451 73.4594 89.8992 73.8407 90.2296 73.8407C91.1782 73.8407 91.6775 72.2889 91.6775 71.2799C91.6775 70.5 91.398 70.1179 91.0935 70.1179ZM90.1025 74.0018C89.5265 74.0018 88.8493 73.5782 88.8493 72.5179C88.8493 71.6107 89.6451 69.9736 91.2205 69.9736C91.7961 69.9736 92.4737 70.4063 92.4737 71.4661C92.4737 72.3737 91.6945 74.0018 90.1025 74.0018Z" fill="white"/>
<path d="M95.8956 71.025C95.5991 71.025 95.4806 70.8643 95.4806 70.6692C95.4806 70.466 95.6753 70.3808 95.6753 70.3045C95.6753 70.2286 95.6839 70.1946 95.5483 70.1946C95.2518 70.1946 94.8622 70.8388 94.6166 71.2884L93.8292 73.8836H93.0669L93.914 71.1697C93.9733 70.9911 94.0749 70.5843 94.0749 70.4826C94.0749 70.2366 93.9987 70.1772 93.8378 70.1772C93.4396 70.1772 93.194 70.6268 92.923 71.3223L92.7536 71.2625C93.0585 70.5165 93.3549 69.9736 93.9563 69.9736C94.3205 69.9736 94.6759 70.2111 94.6759 70.8304L94.7097 70.8388C94.9893 70.4063 95.2434 69.9736 95.7855 69.9736C96.1412 69.9736 96.336 70.2286 96.336 70.4911C96.336 70.7536 96.192 71.025 95.8956 71.025Z" fill="white"/>
<path d="M99.8092 73.9764C99.4534 73.9764 98.9028 73.8327 98.9028 73.3152C98.9028 73.1116 98.9791 72.8996 99.0893 72.6112L99.5889 71.2884C99.6651 71.0848 99.7499 70.8134 99.7499 70.6522C99.7499 70.2963 99.5551 70.2451 99.3348 70.2451C98.8775 70.2451 98.3947 70.7286 98.1067 71.2965L97.2602 73.8836H96.4894L97.4041 71.1697C97.4719 70.9661 97.5651 70.5843 97.5651 70.4826C97.5651 70.2451 97.4888 70.1772 97.3279 70.1772C96.9298 70.1772 96.6926 70.6018 96.4132 71.3223L96.2438 71.2625C96.5487 70.5165 96.8451 69.9736 97.4465 69.9736C97.8103 69.9736 98.2253 70.1093 98.2253 70.7456L98.2592 70.7536C98.5556 70.3468 98.9706 69.9736 99.4619 69.9736C100.029 69.9736 100.436 70.4147 100.436 70.9232C100.436 71.0424 100.351 71.3477 100.275 71.5513L99.8006 72.7978C99.6906 73.0943 99.6144 73.3318 99.6144 73.4595C99.6144 73.7309 99.7668 73.7648 99.9273 73.7648C100.325 73.7648 100.579 73.3657 100.859 72.6452L101.02 72.6961C100.715 73.4509 100.41 73.9764 99.8092 73.9764Z" fill="white"/>
<path d="M103.781 71.3982C103.569 71.3982 103.366 71.2965 103.366 71.0509C103.366 70.7116 103.806 70.6098 103.84 70.5165C103.823 70.4063 103.687 70.1433 103.12 70.1433C102.858 70.1433 102.443 70.3554 102.443 70.8473C102.443 71.6697 103.84 71.7209 103.84 72.8067C103.84 73.417 103.137 74.0018 102.384 74.0018C101.452 74.0018 101.122 73.4255 101.122 73.0184C101.122 72.7049 101.35 72.4335 101.588 72.4335C101.96 72.4335 102.036 72.6709 102.036 72.8067C102.036 72.9586 101.952 73.1795 101.664 73.1795C101.511 73.1795 101.435 73.1711 101.435 73.2979C101.435 73.5612 101.859 73.8241 102.291 73.8241C102.782 73.8241 103.23 73.6121 103.23 73.1541C103.23 72.1871 101.816 72.1871 101.816 71.1268C101.816 70.5843 102.443 69.9736 103.129 69.9736C104.052 69.9736 104.179 70.6522 104.179 70.8643C104.179 71.1781 104.026 71.3982 103.781 71.3982Z" fill="white"/>
<path d="M106.432 68.9477C106.153 68.9477 106.009 68.7356 106.009 68.4727C106.009 68.1503 106.229 67.8789 106.585 67.8789C106.822 67.8789 106.974 68.108 106.974 68.3454C106.974 68.6677 106.78 68.9477 106.432 68.9477ZM105.67 73.9764C105.306 73.9764 104.79 73.8326 104.79 73.3151C104.79 73.1116 104.849 72.908 104.959 72.6112L105.526 71.1696C105.619 70.9321 105.721 70.6017 105.721 70.4999C105.721 70.2535 105.603 70.1771 105.442 70.1771C105.044 70.1771 104.806 70.6017 104.527 71.3223L104.366 71.2625C104.671 70.5164 104.959 69.9736 105.569 69.9736C105.933 69.9736 106.415 70.1945 106.415 70.6946C106.415 70.8892 106.254 71.3053 106.153 71.5512L105.67 72.7978C105.551 73.0942 105.476 73.3406 105.476 73.4674C105.476 73.7389 105.628 73.7647 105.781 73.7647C106.187 73.7647 106.441 73.3657 106.72 72.6451L106.873 72.696C106.568 73.4509 106.263 73.9764 105.67 73.9764Z" fill="white"/>
<path d="M111.006 68.7272C110.837 68.7272 110.532 68.6339 110.532 68.354C110.532 68.2352 110.633 68.0741 110.659 67.8959C110.617 67.7687 110.566 67.7522 110.472 67.7522C109.931 67.7522 109.524 68.32 109.194 69.5161L109.025 70.1093H110.092L109.999 70.3893H108.948C108.677 71.4321 108.355 72.7554 108.068 73.68C107.865 74.333 107.56 74.9689 107.043 75.3929C106.602 75.7662 106.272 75.8848 105.858 75.8848C105.188 75.8848 105.002 75.5457 105.002 75.2064C105.002 75.0198 105.155 74.7652 105.442 74.7652C105.62 74.7652 105.9 74.8671 105.9 75.1723C105.9 75.3505 105.824 75.4269 105.722 75.5707C105.739 75.6898 105.832 75.7237 105.891 75.7237C106.518 75.7237 106.89 75.1635 107.272 73.9175C107.687 72.5518 107.975 71.2799 108.203 70.3893H107.306L107.39 70.1093H108.288L108.381 69.77C108.559 69.0834 108.847 68.5236 109.372 68.0486C109.77 67.6843 110.176 67.5825 110.574 67.5825C111.159 67.5825 111.438 67.9557 111.438 68.3031C111.438 68.4473 111.294 68.7272 111.006 68.7272Z" fill="white"/>
<path d="M111.743 70.1433C111.252 70.1433 110.752 71.0424 110.523 71.8906C111.717 71.6786 112.116 70.9831 112.116 70.5929C112.116 70.3214 112.014 70.1433 111.743 70.1433ZM110.481 72.0684C110.421 72.3482 110.354 72.6282 110.354 72.8657C110.354 73.4425 110.54 73.7223 110.981 73.7223C111.599 73.7223 112.005 73.23 112.353 72.5857L112.505 72.6621C111.98 73.663 111.404 74.0018 110.853 74.0018C110.253 74.0018 109.558 73.7223 109.558 72.6452C109.558 71.7715 110.396 69.9736 111.98 69.9736C112.361 69.9736 112.7 70.1607 112.7 70.542C112.7 71.4581 111.311 71.9411 110.481 72.0684Z" fill="white"/>
</g>
<defs>
<clipPath id="clip0">
<rect width="236" height="76" fill="white"/>
</clipPath>
</defs>
</svg>
